<?xml version="1.0" encoding="utf-8"?>
<svg xmlns="http://www.w3.org/2000/svg" xmlns:xlink="http://www.w3.org/1999/xlink" style="margin: auto; background: none; display: block; shape-rendering: auto;" width="200px" height="200px" viewBox="0 0 100 100" preserveAspectRatio="xMidYMid">
<g transform="translate(50 50)">
<g>
<animateTransform attributeName="transform" type="rotate" values="0;45" keyTimes="0;1" dur="0.3076923076923077s" repeatCount="indefinite"></animateTransform><path d="M29.732137494637012 -4 L38.732137494637016 -4 L38.732137494637016 4 L29.732137494637012 4 A30 30 0 0 1 23.85222316637483 18.195368916882448 L23.85222316637483 18.195368916882448 L30.21618419705376 24.559329947561373 L24.559329947561377 30.216184197053757 L18.195368916882448 23.852223166374827 A30 30 0 0 1 4.0000000000000036 29.732137494637012 L4.0000000000000036 29.732137494637012 L4.000000000000004 38.732137494637016 L-3.9999999999999982 38.732137494637016 L-3.999999999999999 29.732137494637012 A30 30 0 0 1 -18.19536891688245 23.852223166374827 L-18.19536891688245 23.852223166374827 L-24.55932994756138 30.216184197053757 L-30.21618419705375 24.559329947561384 L-23.852223166374824 18.195368916882455 A30 30 0 0 1 -29.732137494637012 3.9999999999999982 L-29.732137494637012 3.9999999999999982 L-38.732137494637016 3.9999999999999996 L-38.732137494637016 -3.9999999999999893 L-29.732137494637012 -3.9999999999999907 A30 30 0 0 1 -23.852223166374827 -18.19536891688245 L-23.852223166374827 -18.19536891688245 L-30.216184197053757 -24.55932994756138 L-24.559329947561388 -30.21618419705375 L-18.195368916882458 -23.852223166374824 A30 30 0 0 1 -4 -29.732137494637012 L-4 -29.732137494637012 L-4.000000000000002 -38.732137494637016 L3.9999999999999876 -38.732137494637016 L3.9999999999999893 -29.732137494637012 A30 30 0 0 1 18.195368916882448 -23.852223166374827 L18.195368916882448 -23.852223166374827 L24.559329947561373 -30.216184197053757 L30.21618419705375 -24.559329947561388 L23.85222316637482 -18.195368916882458 A30 30 0 0 1 29.732137494637012 -4.000000000000002 M0 -20A20 20 0 1 0 0 20 A20 20 0 1 0 0 -20" fill="#5b7ae1"></path></g></g>
<!-- [ldio] generated by https://loading.io/ --></svg>